# xmcd
#
# Track frame offsets:
#	150
#	25240
#	46516
#	69536
#	91527
#	114785
#	136061
#	158711
#	182104
#	203380
# Disc length: 3034 seconds
# Revision: 2
# Processed by: cddbd v1.5.1PL0 Copyright (c) Steve Scherf et al.
#
# Submitted via: libkcddb 0.10
#
DISCID=690bd80a
DTITLE=JAH Creation - JAH Creation
DYEAR=2004
DGENRE=Salsa
TTITLE0=Jah Be My Guide
TTITLE1=This Girl
TTITLE2=Hear Me Father
TTITLE3=Criminals
TTITLE4=Babylon Fall
TTITLE5=Wickedness
TTITLE6=Unify
TTITLE7=Jah Creation
TTITLE8=Wicked Dub
TTITLE9=Dub Creation
EXTD=
EXTT0=
EXTT1=
EXTT2=
EXTT3=
EXTT4=
EXTT5=
EXTT6=
EXTT7=
EXTT8=
EXTT9=
PLAYORDER=
